Coordinates
version=1
nRows=10
nColumns=40
inDegrees=yes

Units are S.I. units (second, meters, Newtons, ...)
If the header above contains a line with 'inDegrees', this indicates whether rotational values are in degrees (yes) or radians (no).

endheader
time	pelvis_tilt	pelvis_list	pelvis_rotation	pelvis_tx	pelvis_ty	pelvis_tz	hip_flexion_r	hip_adduction_r	hip_rotation_r	knee_angle_r	knee_angle_r_beta	ankle_angle_r	subtalar_angle_r	mtp_angle_r	hip_flexion_l	hip_adduction_l	hip_rotation_l	knee_angle_l	knee_angle_l_beta	ankle_angle_l	subtalar_angle_l	mtp_angle_l	lumbar_extension	lumbar_bending	lumbar_rotation	arm_flex_r	arm_add_r	arm_rot_r	elbow_flex_r	pro_sup_r	wrist_flex_r	wrist_dev_r	arm_flex_l	arm_add_l	arm_rot_l	elbow_flex_l	pro_sup_l	wrist_flex_l	wrist_dev_l
      2.07500000	    -24.47028522	     17.44416892	     -7.40272175	     -3.32510011	      0.93107970	      0.32095142	     -5.43811647	    -19.98229080	     -2.06374028	     17.77203761	      0.31018057	    -21.17386625	      0.00000000	      0.00000000	     80.98831031	     -0.86526446	     -9.10129635	     83.57933780	      1.45873463	      9.50732138	      0.00000000	      0.00000000	    -16.48526432	    -24.55884243	     -2.66305637	     78.70865310	    -14.08125956	      8.03486729	    129.55540987	     41.30311765	      0.00000000	      0.00000000	    -78.81900253	    -10.01522826	    -42.44608909	     74.89371321	     52.91769332	      0.00000000	      0.00000000
      2.08000000	    -24.21267032	     17.62109683	     -6.79394225	     -3.29458017	      0.93538369	      0.32112727	     -6.23426167	    -20.10693835	     -2.38496552	     19.23791253	      0.33576491	    -23.73492361	      0.00000000	      0.00000000	     79.77919673	     -0.54676047	     -9.88598609	     79.10276613	      1.38060372	      9.13401649	      0.00000000	      0.00000000	    -17.04374880	    -24.95712696	     -3.55782181	     75.90112133	    -14.22702676	      8.33135621	    130.40059281	     41.40658183	      0.00000000	      0.00000000	    -77.88241105	    -10.14761541	    -42.30772508	     75.61136371	     52.95690638	      0.00000000	      0.00000000
      2.08500000	    -23.83237649	     17.70232363	     -6.41071636	     -3.26415372	      0.93995130	      0.32141046	     -6.75470813	    -20.15117100	     -2.50563974	     21.28952896	      0.37157238	    -25.55459334	      0.00000000	      0.00000000	     78.23773162	     -0.36397029	    -10.71649675	     74.59556087	      1.30193814	      8.67682060	      0.00000000	      0.00000000	    -17.70855093	    -25.21838848	     -4.21733500	     72.64134343	    -14.24101335	      8.65586871	    130.72768715	     41.47651410	      0.00000000	      0.00000000	    -76.39448795	    -10.51367429	    -41.89428228	     76.10602512	     52.98189191	      0.00000000	      0.00000000
      2.09000000	    -23.34464780	     17.69767003	     -6.21944700	     -3.23383785	      0.94467170	      0.32178000	     -7.02121066	    -20.12361759	     -2.43000454	     23.87534629	      0.41670340	    -26.74998755	      0.00000000	      0.00000000	     76.41403182	     -0.28866527	    -11.59968447	     70.10611446	      1.22358252	      8.13294840	      0.00000000	      0.00000000	    -18.50731739	    -25.42378891	     -4.61478675	     69.09343754	    -14.36954602	      8.75805997	    130.65221961	     41.51493871	      0.00000000	      0.00000000	    -74.56817826	    -11.03929575	    -41.39442646	     76.70428876	     53.00555079	      0.00000000	      0.00000000
      2.09500000	    -22.78414655	     17.60874044	     -6.17389157	     -3.20365720	      0.94941792	      0.32220177	     -7.03219553	    -20.01772727	     -2.18082361	     26.95717536	      0.47049147	    -27.37025435	      0.00000000	      0.00000000	     74.37932110	     -0.29382642	    -12.53131252	     65.69186430	      1.14653932	      7.50010785	      0.00000000	      0.00000000	    -19.39041171	    -25.52994746	     -4.80228464	     65.35765479	    -14.49287146	      8.74370273	    130.10440888	     41.51685180	      0.00000000	      0.00000000	    -72.43073205	    -11.74228346	    -40.67575309	     77.33892354	     53.02729069	      0.00000000	      0.00000000
      2.10000000	    -22.18772642	     17.44323787	     -6.22431272	     -3.17362280	      0.95406301	      0.32264206	     -6.78821194	    -19.83120478	     -1.79724382	     30.48751118	      0.53210745	    -27.50236839	      0.00000000	      0.00000000	     72.20540722	     -0.35274684	    -13.51485388	     61.41702149	      1.07192924	      6.76571960	      0.00000000	      0.00000000	    -20.30693514	    -25.53799480	     -4.73246482	     61.48760195	    -14.70104211	      8.55538859	    129.10954768	     41.50122343	      0.00000000	      0.00000000	    -70.09823483	    -12.78824589	    -39.55640858	     78.06579086	     53.01514604	      0.00000000	      0.00000000
      2.10500000	    -21.58860859	     17.19713249	     -6.30695993	     -3.14373562	      0.95849725	      0.32305276	     -6.31386800	    -19.54408041	     -1.33720539	     34.37854850	      0.60001886	    -27.29607670	      0.00000000	      0.00000000	     69.96133363	     -0.43593880	    -14.52972766	     57.35633855	      1.00105695	      5.97518966	      0.00000000	      0.00000000	    -21.25211396	    -25.44593628	     -4.58024841	     57.50167005	    -14.76134940	      8.08690122	    127.64299923	     41.43120533	      0.00000000	      0.00000000	    -67.45043843	    -13.85235304	    -38.39868586	     78.78265318	     52.99411399	      0.00000000	      0.00000000
      2.11000000	    -21.03086817	     16.87652952	     -6.36453993	     -3.11400198	      0.96259255	      0.32337770	     -5.60680687	    -19.15028770	     -0.85821113	     38.56698051	      0.67312079	    -26.86026276	      0.00000000	      0.00000000	     67.72581949	     -0.52021976	    -15.56349701	     53.58652409	      0.93526128	      5.09309249	      0.00000000	      0.00000000	    -22.17904187	    -25.27082291	     -4.64447442	     53.64124892	    -14.73583223	      7.99011098	    125.50665165	     41.29609415	      0.00000000	      0.00000000	    -64.68933631	    -14.38623115	    -37.66783382	     79.75309228	     53.04248305	      0.00000000	      0.00000000
      2.11500000	    -20.53598757	     16.48471648	     -6.34991896	     -3.08440201	      0.96629026	      0.32359598	     -4.69697123	    -18.63929021	     -0.40808522	     42.95316029	      0.74967407	    -26.36433797	      0.00000000	      0.00000000	     65.54806156	     -0.59203841	    -16.59963919	     50.18141315	      0.87583088	      4.20797792	      0.00000000	      0.00000000	    -23.02490356	    -24.94331562	     -3.95949090	     49.41515175	    -14.78199200	      6.29589144	    123.46286991	     41.13470499	      0.00000000	      0.00000000	    -61.55076041	    -16.33351397	    -35.52931608	     80.41787260	     52.99740946	      0.00000000	      0.00000000
      2.12000000	    -20.12699400	     16.02001197	     -6.21310245	     -3.05493954	      0.96950221	      0.32365163	     -3.60123697	    -18.00308606	     -0.04777646	     47.47159250	      0.82853559	    -25.86831530	      0.00000000	      0.00000000	     63.48147679	     -0.63635178	    -17.59817231	     47.21161281	      0.82399809	      3.30933954	      0.00000000	      0.00000000	    -23.81525137	    -24.51395165	     -3.58910255	     45.38163923	    -14.70897327	      4.97297609	    120.82963578	     40.94435324	      0.00000000	      0.00000000	    -58.31412286	    -17.65187632	    -33.86807238	     81.32702944	     52.91632586	      0.00000000	      0.00000000
